<svg xmlns="http://www.w3.org/2000/svg" width="91.413" height="112.162" viewBox="0 0 91.413 112.162"><defs><style>.a,.d{fill:none;}.a{stroke:#e5d549;stroke-width:8px;}.b{fill:#e5d549;stroke:#707070;stroke-linejoin:bevel;}.c{stroke:none;}</style></defs><g transform="translate(-4.807 8.725) rotate(-11)"><line class="a" x2="32.425" y2="80.121" transform="translate(38.813 12.907)"/><line class="a" x1="32.425" y2="80.121" transform="translate(6.388 12.907)"/><line class="a" x2="32.425" transform="translate(22.712 53.183)"/><g class="b" transform="translate(48.379 40.426)"><ellipse class="c" cx="6.627" cy="12.592" rx="6.627" ry="12.592"/><ellipse class="d" cx="6.627" cy="12.592" rx="6.127" ry="12.092"/></g><g class="b" transform="translate(15.905 40.426)"><ellipse class="c" cx="6.627" cy="12.592" rx="6.627" ry="12.592"/><ellipse class="d" cx="6.627" cy="12.592" rx="6.127" ry="12.092"/></g><g class="b" transform="translate(64.284 80.189)"><ellipse class="c" cx="6.627" cy="12.592" rx="6.627" ry="12.592"/><ellipse class="d" cx="6.627" cy="12.592" rx="6.127" ry="12.092"/></g><g class="b" transform="translate(0 80.189)"><ellipse class="c" cx="6.296" cy="12.592" rx="6.296" ry="12.592"/><ellipse class="d" cx="6.296" cy="12.592" rx="5.796" ry="12.092"/></g><g class="b" transform="translate(32.473)"><ellipse class="c" cx="6.296" cy="12.592" rx="6.296" ry="12.592"/><ellipse class="d" cx="6.296" cy="12.592" rx="5.796" ry="12.092"/></g><g class="b" transform="translate(32.473)"><ellipse class="c" cx="6.627" cy="12.592" rx="6.627" ry="12.592"/><ellipse class="d" cx="6.627" cy="12.592" rx="6.127" ry="12.092"/></g></g></svg>