<svg xmlns="http://www.w3.org/2000/svg" xmlns:xlink="http://www.w3.org/1999/xlink" width="246.85" height="120" viewBox="0 0 246.85 120"><defs><style>.a{fill:#1768ac;font-size:91px;font-family:Onyx;}.b,.e{fill:none;}.b{stroke:#e5d549;stroke-width:8px;}.c{fill:#e5d549;stroke:#707070;stroke-linejoin:bevel;}.d{stroke:none;}.f{filter:url(#a);}</style><filter id="a" x="86.85" y="0" width="160" height="120" filterUnits="userSpaceOnUse"><feOffset dx="3" dy="6" input="SourceAlpha"/><feGaussianBlur stdDeviation="2.5" result="b"/><feFlood flood-color="#e5d549"/><feComposite operator="in" in2="b"/><feComposite in="SourceGraphic"/></filter></defs><g transform="translate(-672.713 -28.228)"><g transform="translate(764.063 29.728)"><g class="f" transform="matrix(1, 0, 0, 1, -91.35, -1.5)"><text class="a" transform="translate(91.35 86.5)"><tspan x="0" y="0">utoNet</tspan></text></g></g><g transform="translate(667.905 38.093) rotate(-11)"><line class="b" x2="32.425" y2="80.121" transform="translate(38.813 12.907)"/><line class="b" x1="32.425" y2="80.121" transform="translate(6.388 12.907)"/><line class="b" x2="32.425" transform="translate(22.712 53.183)"/><g class="c" transform="translate(48.379 40.426)"><ellipse class="d" cx="6.627" cy="12.592" rx="6.627" ry="12.592"/><ellipse class="e" cx="6.627" cy="12.592" rx="6.127" ry="12.092"/></g><g class="c" transform="translate(15.905 40.426)"><ellipse class="d" cx="6.627" cy="12.592" rx="6.627" ry="12.592"/><ellipse class="e" cx="6.627" cy="12.592" rx="6.127" ry="12.092"/></g><g class="c" transform="translate(64.284 80.189)"><ellipse class="d" cx="6.627" cy="12.592" rx="6.627" ry="12.592"/><ellipse class="e" cx="6.627" cy="12.592" rx="6.127" ry="12.092"/></g><g class="c" transform="translate(0 80.189)"><ellipse class="d" cx="6.296" cy="12.592" rx="6.296" ry="12.592"/><ellipse class="e" cx="6.296" cy="12.592" rx="5.796" ry="12.092"/></g><g class="c" transform="translate(32.473)"><ellipse class="d" cx="6.296" cy="12.592" rx="6.296" ry="12.592"/><ellipse class="e" cx="6.296" cy="12.592" rx="5.796" ry="12.092"/></g><g class="c" transform="translate(32.473)"><ellipse class="d" cx="6.627" cy="12.592" rx="6.627" ry="12.592"/><ellipse class="e" cx="6.627" cy="12.592" rx="6.127" ry="12.092"/></g></g></g></svg>