<svg xmlns="http://www.w3.org/2000/svg" xmlns:xlink="http://www.w3.org/1999/xlink" width="365.343" height="174" viewBox="0 0 365.343 174">
  <defs>
    <filter id="utoNet" x="131.343" y="0" width="234" height="174" filterUnits="userSpaceOnUse">
      <feOffset dx="3" dy="6" input="SourceAlpha"/>
      <feGaussianBlur stdDeviation="2.5" result="blur"/>
      <feFlood flood-color="#e5d549"/>
      <feComposite operator="in" in2="blur"/>
      <feComposite in="SourceGraphic"/>
    </filter>
  </defs>
  <g id="websit_name" data-name="websit name" transform="translate(-677.157 -31.5)">
    <g id="Group_2" data-name="Group 2" transform="translate(-50 1)">
      <g transform="matrix(1, 0, 0, 1, 727.16, 30.5)" filter="url(#utoNet)">
        <text id="utoNet-2" data-name="utoNet" transform="translate(135.84 130.5)" fill="#1768ac" font-size="138" font-family="Onyx"><tspan x="0" y="0">utoNet</tspan></text>
      </g>
    </g>
    <g id="Group_1" data-name="Group 1" transform="translate(414.278 -352.09) rotate(-11)">
      <line id="Line_1" data-name="Line 1" x2="48.926" y2="120.897" transform="translate(231.647 458.275)" fill="none" stroke="#e5d549" stroke-width="8"/>
      <line id="Line_2" data-name="Line 2" x1="48.926" y2="120.897" transform="translate(182.72 458.275)" fill="none" stroke="#e5d549" stroke-width="8"/>
      <line id="Line_3" data-name="Line 3" x2="48.926" transform="translate(207.352 519.049)" fill="none" stroke="#e5d549" stroke-width="8"/>
      <g id="Ellipse_1" data-name="Ellipse 1" transform="translate(246.081 499.8)" fill="#e5d549" stroke="#707070" stroke-linejoin="bevel" stroke-width="1">
        <ellipse cx="10" cy="19" rx="10" ry="19" stroke="none"/>
        <ellipse cx="10" cy="19" rx="9.5" ry="18.5" fill="none"/>
      </g>
      <g id="Ellipse_6" data-name="Ellipse 6" transform="translate(197.081 499.8)" fill="#e5d549" stroke="#707070" stroke-linejoin="bevel" stroke-width="1">
        <ellipse cx="10" cy="19" rx="10" ry="19" stroke="none"/>
        <ellipse cx="10" cy="19" rx="9.5" ry="18.5" fill="none"/>
      </g>
      <g id="Ellipse_3" data-name="Ellipse 3" transform="translate(270.081 559.8)" fill="#e5d549" stroke="#707070" stroke-linejoin="bevel" stroke-width="1">
        <ellipse cx="10" cy="19" rx="10" ry="19" stroke="none"/>
        <ellipse cx="10" cy="19" rx="9.5" ry="18.5" fill="none"/>
      </g>
      <g id="Ellipse_7" data-name="Ellipse 7" transform="translate(173.081 559.8)" fill="#e5d549" stroke="#707070" stroke-linejoin="bevel" stroke-width="1">
        <ellipse cx="9.5" cy="19" rx="9.5" ry="19" stroke="none"/>
        <ellipse cx="9.5" cy="19" rx="9" ry="18.5" fill="none"/>
      </g>
      <g id="Ellipse_4" data-name="Ellipse 4" transform="translate(222.081 438.8)" fill="#e5d549" stroke="#707070" stroke-linejoin="bevel" stroke-width="1">
        <ellipse cx="9.5" cy="19" rx="9.5" ry="19" stroke="none"/>
        <ellipse cx="9.5" cy="19" rx="9" ry="18.5" fill="none"/>
      </g>
      <g id="Ellipse_5" data-name="Ellipse 5" transform="translate(222.081 438.8)" fill="#e5d549" stroke="#707070" stroke-linejoin="bevel" stroke-width="1">
        <ellipse cx="10" cy="19" rx="10" ry="19" stroke="none"/>
        <ellipse cx="10" cy="19" rx="9.5" ry="18.5" fill="none"/>
      </g>
    </g>
  </g>
</svg>
